<?xml version="1.0" standalone="no"?>
<svg
  width="600"
  height="600"
  viewBox="0 0 600 600"
  xmlns="http://www.w3.org/2000/svg"
>
  <g transform="translate(300,300)">
    <path d="M133.2,-176.7C163,-161.8,170.9,-109.9,177.6,-63.8C184.2,-17.6,189.6,22.9,179.5,59.7C169.4,96.4,143.8,129.5,111.3,155.1C78.8,180.7,39.4,198.9,-5.5,206.4C-50.4,214,-100.7,210.9,-126.7,183.2C-152.7,155.5,-154.3,103.1,-173.7,54C-193.1,4.8,-230.2,-41,-220.8,-72.4C-211.5,-103.7,-155.7,-120.6,-111.2,-130.8C-66.6,-141,-33.3,-144.5,9.2,-157.2C51.7,-169.9,103.5,-191.7,133.2,-176.7Z" fill="#7bdcb5" />
  </g>
</svg>
  