<?xml version="1.0" encoding="UTF-8"?>
<svg width="24px" height="24px" viewBox="0 0 24 24" version="1.1" xmlns="http://www.w3.org/2000/svg" xmlns:xlink="http://www.w3.org/1999/xlink">
    <!-- Generator: Sketch 53.2 (72643) - https://sketchapp.com -->
    <title>feature_icon_1</title>
    <desc>Created with Sketch.</desc>
    <g id="HNS-Domains" stroke="none" stroke-width="1" fill="none" fill-rule="evenodd" opacity="0.900000036" stroke-linecap="round" stroke-linejoin="round">
        <g id="hns_domains" transform="translate(-323.000000, -688.000000)" fill="#7CD199" stroke="#3EB566" stroke-width="2">
            <g id="Group-8" transform="translate(231.000000, 675.000000)">
                <g id="Group-15">
                    <g id="Group-7" transform="translate(78.000000, 0.000000)">
                        <path d="M15,23.5925926 L15,20.8888889 C15,19.7843194 15.8954305,18.8888889 17,18.8888889 L19.7037037,18.8888889 C20.2559885,18.8888889 20.7037037,18.4411736 20.7037037,17.8888889 L20.7037037,16.4444444 C20.7037037,15.0944151 21.7981188,14 23.1481481,14 L23.962963,14 C25.3129924,14 26.4074074,15.0944151 26.4074074,16.4444444 L26.4074074,17.8888889 C26.4074074,18.4411736 26.8551227,18.8888889 27.4074074,18.8888889 L30.1111111,18.8888889 C31.2156806,18.8888889 32.1111111,19.7843194 32.1111111,20.8888889 L32.1111111,24.5925926 L34.1481481,24.5925926 C35.7231824,24.5925926 37,25.8694102 37,27.4444444 L37,27.8518519 C37,29.2018812 35.9055849,30.2962963 34.5555556,30.2962963 L34.1111111,30.2962963 C33.0065416,30.2962963 32.1111111,31.1917268 32.1111111,32.2962963 L32.1111111,34 C32.1111111,35.1045695 31.2156806,36 30.1111111,36 L27.4074074,36 C26.8551227,36 26.4074074,35.5522847 26.4074074,35 L26.4074074,33.5555556 C26.4074074,32.2055262 25.3129924,31.1111111 23.962963,31.1111111 L23.1481481,31.1111111 C21.7981188,31.1111111 20.7037037,32.2055262 20.7037037,33.5555556 L20.7037037,35 C20.7037037,35.5522847 20.2559885,36 19.7037037,36 L17,36 C15.8954305,36 15,35.1045695 15,34 L15,31.2962963 C15,30.7440115 15.4477153,30.2962963 16,30.2962963 L17.037037,30.2962963 C18.1620615,30.2962963 19.0740741,29.3842837 19.0740741,28.2592593 L19.0740741,26.6296296 C19.0740741,25.5046051 18.1620615,24.5925926 17.037037,24.5925926 L16,24.5925926 C15.4477153,24.5925926 15,24.1448773 15,23.5925926 Z" id="feature_icon_1"></path>
                    </g>
                </g>
            </g>
        </g>
    </g>
</svg>