<?xml version="1.0" encoding="UTF-8"?>
<svg width="20px" height="24px" viewBox="0 0 20 24" version="1.1" xmlns="http://www.w3.org/2000/svg" xmlns:xlink="http://www.w3.org/1999/xlink">
    <!-- Generator: Sketch 53.2 (72643) - https://sketchapp.com -->
    <title>feature_icon_3</title>
    <desc>Created with Sketch.</desc>
    <g id="HNS-Domains" stroke="none" stroke-width="1" fill="none" fill-rule="evenodd">
        <g id="hns_domains" transform="translate(-1090.000000, -688.000000)">
            <g id="Group-8" transform="translate(231.000000, 675.000000)">
                <g id="Group-15-Copy-2" transform="translate(764.000000, 0.000000)">
                    <g id="Group-7" transform="translate(80.000000, 0.000000)">
                        <g id="feature_icon_3" transform="translate(15.000000, 14.000000)">
                            <path d="M19,4 L19,13 C18.6666667,14.8333333 18.3333333,16 18,16.5 C17.6666667,17 16.6666667,17.5 15,18 L1,18 L1,9 C0.924924285,7.07507571 1.25825762,5.74174238 2,5 C2.74174238,4.25825762 4.07507571,3.92492429 6,4 L19,4 Z" id="Path-5" fill="#7CD199"></path>
                            <polyline id="Path" stroke="#3EB566" stroke-width="2" stroke-linecap="round" stroke-linejoin="round" points="15 0 19 4 15 8"></polyline>
                            <path d="M1,10 L1,8 C1,5.790861 2.790861,4 5,4 L19,4" id="Path" stroke="#3EB566" stroke-width="2" stroke-linecap="round" stroke-linejoin="round"></path>
                            <polyline id="Path" stroke="#3EB566" stroke-width="2" stroke-linecap="round" stroke-linejoin="round" points="5 22 1 18 5 14"></polyline>
                            <path d="M19,12 L19,14 C19,16.209139 17.209139,18 15,18 L1,18" id="Path" stroke="#3EB566" stroke-width="2" stroke-linecap="round" stroke-linejoin="round"></path>
                        </g>
                    </g>
                </g>
            </g>
        </g>
    </g>
</svg>