<svg xmlns="http://www.w3.org/2000/svg" xmlns:xlink="http://www.w3.org/1999/xlink" viewBox="0 0 2192.84 508.15" xmlns:v="https://vecta.io/nano"><g fill="#fff"><path d="M575.17 111.5h45c36.62 0 59.75 22.33 59.75 57 0 34.05-23 57-59.75 57h-45zm15.58 14.3v85.44h29.4c27 0 43.7-16.7 43.7-42.72 0-26.82-16.7-42.72-43.7-42.72zm184.07 61.84h-66c.8 14.78 11.4 26.34 27 26.34 16.06 0 22.17-8.5 23.6-11.08h14.46c-1.12 6.75-11.4 24.58-38.07 24.58-24.4 0-41.76-18.32-41.76-41.6 0-24.1 17-41.6 40.32-41.6s40.44 17.34 40.44 43.36zm-65.05-12.2h48.83c-3.53-11.9-12.37-18.64-24.25-18.64-12.7 0-21.53 7.2-24.58 18.64zm116.46-17.67c-14.6 0-25.05 12.53-25.05 28.1S811.62 214 826.4 214c16.06 0 22-10.43 23.3-13.16h14.45c-1 5.46-9.3 26.66-37.74 26.66-22.64 0-40.32-18.15-40.32-41.6s17.5-41.6 40.16-41.6c28.6 0 36.78 20.7 37.9 26.66h-14.77c-1.3-2.6-7.36-13.2-23.13-13.2zM956 187.64h-66c.8 14.78 11.4 26.34 27 26.34 16.06 0 22.16-8.5 23.6-11.08h14.45c-1.12 6.75-11.4 24.58-38.06 24.58-24.42 0-41.76-18.32-41.76-41.6 0-24.1 17-41.6 40.3-41.6S956 161.62 956 187.64zm-65-12.2h48.82c-3.53-11.9-12.36-18.64-24.25-18.64-12.72 0-21.57 7.2-24.57 18.64zm96.83 50.1H973.2V146.2h14.62v14.62a30.44 30.44 0 0 1 27-16.38c20.08 0 33.9 15.1 33.9 35.5v45.6h-14.78v-42.88c0-14.94-9-24.74-22.64-24.74-14.14 0-23.45 10.28-23.45 24.74zm141.17 0h-18.8c-18.8 0-27.78-8.84-27.78-26.5v-39.67H1059V146.2h23.45v-34.7h14.6v34.7h32v13.18h-32v36.3c0 11.56 3.86 16.38 16.4 16.38H1129zm31.5 0h-14.62V146.2h14.62v14.62c2.24-5.78 9-15.25 27.62-15.25H1208v14.6h-20.23c-20.4 0-27.3 6.42-27.3 20.56zm93.8 1.93c-20.88 0-38.7-15.42-38.7-41.6 0-25.86 17.83-41.6 38.7-41.6 17.35 0 26.18 10.92 28.1 15.1V146.2h14.6v79.35h-14.62V211.9c-1.9 4-10.08 15.58-28.07 15.58zm2.73-69.7c-15.9 0-26.34 12.2-26.34 28.1 0 15.74 10.44 28.1 26.34 28.1 15.42 0 25.7-12.36 25.7-28.1 0-15.88-10.28-28.1-25.74-28.1zm64.27-50.44h14.62v118.2h-14.62zm38.7.66h15.26v23H1360zm.32 38.22h14.6v79.35h-14.6zm113.88 79.33h-81.27V217l52.84-57.83h-51.55v-13h74.2v8.2l-53.65 58.15h59.43zm89.96-37.9h-66c.8 14.78 11.4 26.34 27 26.34 16.06 0 22.16-8.5 23.6-11.08h14.47c-1.13 6.75-11.4 24.58-38.07 24.58-24.42 0-41.76-18.32-41.76-41.6 0-24.1 17-41.6 40.3-41.6s40.45 17.34 40.45 43.36zm-65.05-12.2h48.82c-3.53-11.9-12.36-18.64-24.25-18.64-12.68 0-21.52 7.2-24.57 18.64zm115.65 52.04c-21.2 0-39.2-15.42-39.2-41.6 0-26 18-41.6 39.2-41.6 17.82 0 27 10.92 28.9 15.1v-52h14.62v118.17h-14.62V211.9c-1.93 3.85-10.92 15.58-28.9 15.58zm2.73-69.7c-16.23 0-26.83 12-26.83 28.1s10.6 28.1 26.83 28.1c15.9 0 26.5-12 26.5-28.1s-10.6-28.1-26.5-28.1zm173.8 30.02c0 22.64-17.18 39.67-38.54 39.67s-38.55-17-38.55-39.67c0-22.33 17.2-39.68 38.55-39.68s38.54 17.35 38.54 39.68zm-5.62 0c0-18.8-14-34.37-32.92-34.37s-32.93 15.57-32.93 34.37c0 19.27 14 34.36 32.93 34.36s32.92-15.1 32.92-34.36zm32.32 37.75h-5.46v-75.5h5.46v18a30.22 30.22 0 0 1 28.75-19.92c19.75 0 33.57 14.46 33.57 35.5v41.92h-5.46v-41.13c0-19.27-12-31-28.75-31-15.1 0-28.1 11.88-28.1 31zm-1152.63 85.7h-68.65V262h-16.9v115.25h16.9v-50.23h68.65v50.23h16.88V262h-16.88v49.26m75.85-2.7c11.5 0 19.57 6 23.33 17.3h-47c3.24-11 11.83-17.3 23.7-17.3m0-13.84c-23.34 0-40.94 18.16-40.94 42.23s18.22 42.22 42.4 42.22c27.76 0 37.46-18.58 38.67-25.1l.15-.78h-15.66l-.18.36c-.22.44-5.56 10.7-23 10.7-14.45 0-25.15-10.24-26.26-25h65.9v-.66c0-25.9-16.9-44-41.1-44M839 364.38c-15.4 0-26.14-11.28-26.14-27.42s10.75-27.43 26.14-27.43c15.2 0 25.82 11.28 25.82 27.43s-10.6 27.42-25.82 27.42m25.5-56.33c-3.75-5.52-12.92-13.32-28.23-13.32-23.44 0-39.8 17.37-39.8 42.23s16.37 42.22 39.8 42.22c16.6 0 25.18-9.58 28.23-13.94v12h15.92V257.82h-15.9zm74.96.52c11.52 0 19.57 6 23.34 17.3h-47c3.23-11 11.82-17.3 23.68-17.3m0-13.84c-23.33 0-40.93 18.16-40.93 42.23s18.22 42.22 42.38 42.22c27.76 0 37.47-18.58 38.68-25.1l.15-.78H964.1l-.18.36c-.22.44-5.55 10.7-23 10.7-14.44 0-25.15-10.24-26.26-25h65.9v-.66c0-25.9-16.9-44-41.1-44m74.32 14.3v-12.34h-15.92v80.6h15.92v-45.43c0-14.3 7.46-19.88 26.62-19.88h20.88V296h-20.56c-16.77 0-24 7.72-26.94 13M1136 337c0 15.9-10.53 27.42-25 27.42-15.1 0-25.67-11.27-25.67-27.42s10.56-27.43 25.67-27.43c14.5 0 25 11.53 25 27.43m-.32-40.3v11.43c-2.88-4.24-11-13.36-27.43-13.36-19.55 0-39.34 14.5-39.34 42.23 0 24.86 16.18 42.22 39.34 42.22 15.66 0 23.85-8.57 27.43-13.9v12h15.92v-80.66zm195.25 14.15h-68.65v-49.27h-16.9v115.27h16.9v-50.23h68.65v50.23h16.88V261.58h-16.88v49.27m102.94 25.7c0 15.9-10.52 27.43-25 27.43-15.1 0-25.66-11.28-25.66-27.43s10.55-27.43 25.66-27.43c14.5 0 25 11.54 25 27.43m-.32-28.87c-2.87-4.23-11-13.35-27.43-13.35-19.54 0-39.33 14.5-39.33 42.22 0 24.86 16.18 42.22 39.33 42.22 15.66 0 23.86-8.58 27.43-13.9v12h15.92v-80.6h-15.92zm80.9 21.16l-7.32-.82-9.7-1.1c-8.8-1.05-12.9-4.1-12.9-9.62 0-5.83 6.7-9.45 17.47-9.45 14.3 0 20 6.77 22 9.07l.2.24h16.77l-.27-.86c-2.15-6.7-10.2-22.3-38.67-22.3-19.88 0-33.23 9.56-33.23 23.77 0 13.65 9.44 22.26 26.58 24.24l17 1.93c11.9 1.42 13.54 5.93 13.54 10.58 0 6.43-7.43 10.42-19.4 10.42-16.45 0-22.55-8.75-23.3-11.1l-.14-.46h-16.9l.2.82c.25 1 6.46 24.9 40.12 24.9 21.46 0 35.32-9.64 35.32-24.57 0-15.13-8.7-23.3-27.38-25.68"/><use xlink:href="#B"/><path d="M1694.57 364.14c-15.15 0-26.15-11.54-26.15-27.43 0-16.24 10.76-27.6 26.15-27.6 15.2 0 25.82 11.35 25.82 27.6 0 15.9-10.86 27.43-25.82 27.43m25.5-56.34c-3.77-5.58-13-13.47-28.23-13.47-23.45 0-39.82 17.42-39.82 42.38s16.37 42.22 39.82 42.22c15.07 0 24.28-7.9 28.23-13.8v11.06c0 15.08-9.6 23.74-26.3 23.74-11.13 0-19.6-4-23.82-11.23l-.2-.33h-17.27l.2.82c.26 1.05 7 25.53 41.07 25.53 26 0 42.23-14.76 42.23-38.53v-79.94h-15.92zm55.07.8v-12.35h-15.92v80.6h15.92V331.4c0-14.3 7.47-19.88 26.62-19.88h20.88V295.6h-20.56c-16.77 0-24 7.72-26.94 13m121.46 27.95c0 15.9-10.53 27.43-25 27.43-15.1 0-25.66-11.28-25.66-27.43s10.56-27.43 25.66-27.43c14.5 0 25 11.54 25 27.43m-.32-28.87c-2.88-4.24-11-13.35-27.43-13.35-19.55 0-39.33 14.5-39.33 42.22 0 24.86 16.17 42.22 39.33 42.22 15.65 0 23.85-8.57 27.43-13.9v12h15.92v-80.6h-15.92zm80.55 1.44c15.3 0 26 11.28 26 27.43s-10.7 27.43-26 27.43-26-11.28-26-27.43 10.7-27.43 26-27.43m2.57-14.8c-15.7 0-24.8 8.65-28.23 13.75v-11.83h-15.76V412.8h15.76v-47.1c3.73 5.18 13.55 13.06 28.23 13.06 23.35 0 39.66-17.36 39.66-42.22s-16.3-42.22-39.66-42.22"/><use xlink:href="#B" x="477.73"/><path d="M1190.6 306.57l4.34-11h4.65v15.63h-3v-12.64l-5 12.7h-2l-5-12.78v12.7h-2.92v-15.63h4.82l4.3 11m-26.8-11h14.64v2.84h-5.72v12.8h-3.2v-12.8h-5.7zM232.4 286H324v40.42h17V190.2h-17v40.43h-91.6V190.2h-17.06v136.2h17.06zm0-38.3H324v21.25h-91.6zM488.66 233h-.35a209.76 209.76 0 0 0-44.21-106.68l.26-.24a24.261 24.261 0 1 0-34.31-34.31l-.24.26a209.84 209.84 0 0 0-106.73-44.22v-.35a24.26 24.26 0 0 0-48.52 0v.35c-40.07 4.55-76 19.42-106.73 44.2l-.24-.25a24.26 24.26 0 1 0-34.3 34.31l.25.24a209.86 209.86 0 0 0-44.11 105.94l-.1.8H69a24.26 24.26 0 1 0 0 48.51h.35a209.65 209.65 0 0 0 44.22 106.72 3.07 3.07 0 0 0-.26.25 24.254 24.254 0 1 0 34.3 34.3 3.07 3.07 0 0 0 .25-.26 209.77 209.77 0 0 0 106.73 44.21v.47a24.26 24.26 0 0 0 48.52 0v-.46c39.2-4.24 75.1-19.1 106.72-44.22l.25.27a24.261 24.261 0 0 0 34.31-34.31l-.27-.26a209.67 209.67 0 0 0 44.22-106.71h.35a24.26 24.26 0 0 0 0-48.52zm-2.7.15a24.17 24.17 0 0 0-13.6 6.16l-67.85-67.8 16.2-39.2a24.28 24.28 0 0 0 21.62-4.42A207.26 207.26 0 0 1 486 233.19zm-84 26.2l62.52.1a23.82 23.82 0 0 0 1.15 5.49l-68.84 28.8a123.28 123.28 0 0 0 5.21-34.36zm62.42-2.25L402 257a123.18 123.18 0 0 0-6.08-37l70 29a23.94 23.94 0 0 0-1.51 8.13zm-64.76 1.18a121.47 121.47 0 1 1-121.43-121.43 121.6 121.6 0 0 1 121.46 121.47zm-10.3 54.5L402.7 345l-16.84 16.92-18.2-18.1a124.46 124.46 0 0 0 21.69-31.01zM190 345.15l-16.45 16.4-15.67-15.9 11.6-28a124.75 124.75 0 0 0 20.52 27.5zm-35.64-88.5l-61.15-.1a24.43 24.43 0 0 0-1.27-7L160 221.27a123.06 123.06 0 0 0-5.61 35.37zM93.2 258.9l61.18.1a123.31 123.31 0 0 0 4.72 33.25l-66.92-27.8a24.19 24.19 0 0 0 1.02-5.55zm76.23-59.74L157.9 170.8l16.17-16.17L190.5 171a124.86 124.86 0 0 0-21.08 28.16zM367 172.1l17.43-17.37 17.33 17.33L388.94 203A124.46 124.46 0 0 0 367 172.09zm19.1-19l25.6-25.52a24.22 24.22 0 0 0 6.81 4l-15.8 38.13zm-1.67-1.67L368 135l37.36-15.5a24.25 24.25 0 0 0 4.57 6.46zm-1.66 1.66l-17.42 17.37a124.44 124.44 0 0 0-29.93-21.9L365.65 136zm-50.1-5.93a120.78 120.78 0 0 0-11.56-5l-30.5-73.48a24.58 24.58 0 0 0 4.53-3.24l68.73 68.73zm-14.54-6a123.33 123.33 0 0 0-37.48-6.56l.1-62.88a24.1 24.1 0 0 0 7.77-1.92zm-39.83-6.6h-.07a123.35 123.35 0 0 0-35.05 5.06l28.5-68.92a23.68 23.68 0 0 0 6.72 1.08zm-38 6a123.17 123.17 0 0 0-15.3 5.94L194.76 134l68.18-68.18a24.62 24.62 0 0 0 6.49 4.06zm-18 7.44a124.18 124.18 0 0 0-30 21.43L175.75 153 193 135.75zm-48.13 3.42l-25.93-25.8a24.09 24.09 0 0 0 4.39-6.53l38.07 15.8zm-1.74 1.58L157 168.44l-15.42-37.93a24.28 24.28 0 0 0 4.93-3.36zM168 201.87a122 122 0 0 0-7 16.45l-69.9 29a24.32 24.32 0 0 0-3.8-5.92l68.8-68.8zm-76.62 64.8l68.62 28.5a122 122 0 0 0 8.11 19.74l-12 28.92L87 273.6a24.5 24.5 0 0 0 4.38-6.93zM156.94 348l15 15.2-24.9 24.8a24.56 24.56 0 0 0-5.12-3.71zm16.63 16.9l15.6 15.83L152.7 396a24.42 24.42 0 0 0-4-6.29zm1.66-1.66l16.46-16.4a124.67 124.67 0 0 0 28.55 20.89l-28.75 12zM223 369.1a123.67 123.67 0 0 0 15.64 6.54L267.2 446a24.4 24.4 0 0 0-5.94 4.59l-68-69zm18.56 7.5a123.7 123.7 0 0 0 36.35 5.53l-.1 60.9a24 24 0 0 0-8.47 1.92zm38.7 5.5a123.05 123.05 0 0 0 37.34-6.4l-28.7 69.46a24.16 24.16 0 0 0-8.74-2.15zm40.32-7.44a122.11 122.11 0 0 0 14.91-6.61l31.32 13-69.8 70.12a24.76 24.76 0 0 0-6-4.93zm17.58-8.05A124.36 124.36 0 0 0 366 345.5l18.18 18.07-15.62 15.7zm47.72-1.38l23.82 23.7a24.16 24.16 0 0 0-4.07 5.72l-34.68-14.4zm1.66-1.66l16.15-16.23L418.47 383a24.17 24.17 0 0 0-7.09 4.27zM390.7 310a121.4 121.4 0 0 0 5.2-13.25l70.6-29.55a24.27 24.27 0 0 0 5.72 8l-67.75 68.06zm4.2-93c-1.35-3.8-2.9-7.53-4.6-11.16l13.22-32L470.7 241a24.07 24.07 0 0 0-3.91 5.79zm16.8-123.57a21.92 21.92 0 0 1 31 31c-.48.48-1 .93-1.5 1.36l-.28.23a21.89 21.89 0 0 1-29.19-1.58 21.6 21.6 0 0 1-4.15-5.82h.08l-.9-2.17h-.1a21.85 21.85 0 0 1 5.09-23zm-3.47.36a24.31 24.31 0 0 0-3.81 23.53L366.2 133.2l-69.42-69.42a24.2 24.2 0 0 0 6.16-13.61A207.5 207.5 0 0 1 408.25 93.8zm-129.4-68.23a21.91 21.91 0 1 1-21.9 21.9 21.93 21.93 0 0 1 21.9-21.9zm-24.1 24.6a24.18 24.18 0 0 0 6.51 14L192.4 133l-39-16.18a24.28 24.28 0 0 0-4-23c30.36-24.48 65.78-39.15 105.32-43.66zm-146.18 58.76a21.91 21.91 0 1 1 8.24 17.08l-.47-.38c-.46-.4-.92-.8-1.36-1.23a21.77 21.77 0 0 1-6.41-15.47zm-36.8 123.6a207.52 207.52 0 0 1 43.57-104.65 24.27 24.27 0 0 0 24.06 3.6l15.75 38.76-69.46 69.47a24.19 24.19 0 0 0-14-6.52zM69 279.2a21.91 21.91 0 1 1 21.91-21.9A21.93 21.93 0 0 1 69 279.2zm2.7 2.2a24.13 24.13 0 0 0 13.59-6.15l69.85 70.92-15.34 37.1a24.28 24.28 0 0 0-24.46 3.44A207.24 207.24 0 0 1 71.7 281.4zm75.88 137.92l-.6-.5-1.5 1.83.53.42-.07.08a21.92 21.92 0 1 1-31-31q.77-.76 1.6-1.44a21.92 21.92 0 0 1 34.03 8.16l-.16.07.9 2.17h.1a22 22 0 0 1 1 6.59 21.75 21.75 0 0 1-4.82 13.61zm1.84 1.47a24.22 24.22 0 0 0 4.11-22.62l37.4-15.66 68.78 69.83a24.17 24.17 0 0 0-5 12.08 207.31 207.31 0 0 1-105.29-43.63zm129.4 68.35a21.91 21.91 0 1 1 21.91-21.9 21.92 21.92 0 0 1-21.91 21.9zm24.1-24.7a24.13 24.13 0 0 0-4.45-11.43l70.66-71 35.5 14.74a24.29 24.29 0 0 0 3.61 24c-31.24 24.82-66.63 39.5-105.32 43.7zm146.2-58.76a21.91 21.91 0 1 1-8.15-17l.2.17c.52.43 1 .9 1.53 1.38a21.79 21.79 0 0 1 6.41 15.45zm-6.8-19a24 24 0 0 0-15.11-5.3 24.28 24.28 0 0 0-6.5.89l-15.25-36.76L474 276.64a24.09 24.09 0 0 0 12 4.76 207.41 207.41 0 0 1-43.68 105.31zm46.34-107.47a21.9 21.9 0 0 1-2.44-43.67v.05l1.67-.17h.76a21.91 21.91 0 1 1 0 43.81z"/></g><defs ><path id="B" d="M1601 294.5a30.91 30.91 0 0 0-26.3 14.47V257.4h-15.92v119.44h15.92v-43.5c0-14.4 9.15-24.06 22.77-24.06 13.35 0 22 9.44 22 24.06v43.5h16.08V330.6c0-21.27-14.2-36.12-34.52-36.12"/></defs></svg>